PathFileType	4	(X/Y/Z)	/Users/itak/Documents/Research/Walk-IL/dataset/trc/00112_00007.trc
DataRate	CameraRate	NumFrames	NumMarkers	Units	OrigDataRate	OrigDataStartFrame	OrigNumFrames
100.000000	100.000000	4	53	mm	100.000000	350	560
Frame#	Time	RPSI			LPSI			L3			STRN			T10			C7			CLAV			RBAK			LBAK			LSHO			LUPA			LAEL			LAOL			LWTS			LWPS			LFRA			LIFD			LHPS			LHTS			RSHO			RUPA			RAEL			RAOL			RWTS			RWPS			RFRA			RIFD			RHTS			RHPS			RBHD			LFHD			RFHD			LBHD			LHIP			RHIP			RASI			LASI			LKNE			LTHI			LANK			LTIP			LTOE			LMT1			LMT5			LHEE			RKNE			RTHI			RANK			RTIP			RTOE			RMT1			RMT5			RHEE			
		X1	Y1	Z1	X2	Y2	Z2	X3	Y3	Z3	X4	Y4	Z4	X5	Y5	Z5	X6	Y6	Z6	X7	Y7	Z7	X8	Y8	Z8	X9	Y9	Z9	X10	Y10	Z10	X11	Y11	Z11	X12	Y12	Z12	X13	Y13	Z13	X14	Y14	Z14	X15	Y15	Z15	X16	Y16	Z16	X17	Y17	Z17	X18	Y18	Z18	X19	Y19	Z19	X20	Y20	Z20	X21	Y21	Z21	X22	Y22	Z22	X23	Y23	Z23	X24	Y24	Z24	X25	Y25	Z25	X26	Y26	Z26	X27	Y27	Z27	X28	Y28	Z28	X29	Y29	Z29	X30	Y30	Z30	X31	Y31	Z31	X32	Y32	Z32	X33	Y33	Z33	X34	Y34	Z34	X35	Y35	Z35	X36	Y36	Z36	X37	Y37	Z37	X38	Y38	Z38	X39	Y39	Z39	X40	Y40	Z40	X41	Y41	Z41	X42	Y42	Z42	X43	Y43	Z43	X44	Y44	Z44	X45	Y45	Z45	X46	Y46	Z46	X47	Y47	Z47	X48	Y48	Z48	X49	Y49	Z49	X50	Y50	Z50	X51	Y51	Z51	X52	Y52	Z52	X53	Y53	Z53	

351	3.5	-1014.526733398438	1122.5224609375	-286.5265808105469	-1011.681274414062	1132.018676757812	-422.011474609375	-1019.362182617188	1167.927001953125	-357.7509460449219	-779.164794921875	1354.729858398438	-360.1286010742188	-1036.188720703125	1324.8662109375	-362.7858581542969	-970.5413208007812	1612.831787109375	-389.6243591308594	-800.7613525390625	1492.828735351562	-368.7306518554688	-1042.381958007812	1436.827758789062	-295.3367919921875	-974.896240234375	1589.67626953125	-490.7872314453125	-887.3719482421875	1565.02294921875	-553.5671997070312	-908.7692260742188	1434.12890625	-622.5315551757812	-901.730224609375	1215.26171875	-646.1198120117188	-974.296142578125	1206.057006835938	-598.7940673828125	-818.4116821289062	954.2430419921875	-589.2910766601562	-894.826416015625	931.2592163085938	-628.244384765625	-888.5551147460938	1098.432861328125	-648.4619140625	-815.9833984375	760.884765625	-565.6705932617188	-868.4381103515625	855.3831787109375	-624.9430541992188	-803.838134765625	864.572509765625	-598.0726928710938	-922.5660400390625	1596.482299804688	-204.4822845458984	-946.0407104492188	1527.080078125	-138.4586639404297	-976.6410522460938	1234.437744140625	-106.772705078125	-980.0798950195312	1230.228393554688	-203.5296020507812	-849.5853271484375	982.8921508789062	-104.2384948730469	-925.9209594726562	972.20703125	-75.06090545654297	-959.1827392578125	1160.78271484375	-87.4462890625	-840.6012573242188	785.3658447265625	-112.0389099121094	-828.303955078125	872.6994018554688	-92.80555725097656	-896.756591796875	870.9824829101562	-64.26746368408203	-923.8138427734375	1781.554443359375	-315.59814453125	-765.2252807617188	1834.863647460938	-458.5066223144531	-761.1318969726562	1850.147094726562	-329.4440612792969	-935.8367919921875	1769.744750976562	-450.1761169433594	-920.5874633789062	1045.4501953125	-532.5904541015625	-884.40673828125	1023.46044921875	-171.6373443603516	-805.8566284179688	1100.741455078125	-226.5730133056641	-810.4365844726562	1101.8603515625	-489.6443786621094	-857.5679321289062	543.9796752929688	-495.65087890625	-893.693359375	686.1732788085938	-525.5643310546875	-926.6463623046875	28.66686058044434	-458.5541687011719	-936.9603881835938	288.0448303222656	-505.8837890625	-704.9262084960938	64.2030029296875	-397.199951171875	-784.1820068359375	63.47434234619141	-364.0520935058594	-799.0993041992188	32.5328483581543	-474.9344177246094	-1000.333618164062	36.00529479980469	-399.0312194824219	-784.5460205078125	538.0508422851562	-203.0039367675781	-827.4378051757812	817.0582275390625	-181.6969299316406	-1107.557006835938	118.1010971069336	-164.2310943603516	-861.0111694335938	420.7945556640625	-178.7220153808594	-886.0991821289062	48.38078689575195	-202.4305572509766	-944.5009765625	54.65832138061523	-249.2710418701172	-983.69482421875	70.98575592041016	-138.2463226318359	-1158.155029296875	142.2867889404297	-216.9853515625	
352	3.51	-1020.471069335938	1122.649291992188	-286.1457824707031	-1017.75732421875	1132.284057617188	-421.6101684570312	-1025.042358398438	1167.91650390625	-357.14697265625	-785.5508422851562	1354.955444335938	-359.6997375488281	-1042.45263671875	1324.686645507812	-361.9093322753906	-977.5690307617188	1612.75	-388.8237915039062	-807.646728515625	1492.902709960938	-368.4600830078125	-1048.874755859375	1436.670043945312	-294.288818359375	-982.3136596679688	1589.545776367188	-490.0248413085938	-894.9530639648438	1564.979736328125	-553.0496215820312	-916.8202514648438	1434.194702148438	-622.081787109375	-911.08447265625	1215.4345703125	-645.9343872070312	-983.4868774414062	1206.657958984375	-598.2196655273438	-830.70263671875	953.1026611328125	-590.75634765625	-907.614501953125	931.3306884765625	-629.4988403320312	-899.2589721679688	1098.509155273438	-648.8651123046875	-830.9498901367188	759.607421875	-568.1420288085938	-882.2286987304688	855.0828857421875	-626.7131958007812	-817.5390625	863.2149047851562	-600.0841064453125	-929.1290893554688	1596.686157226562	-203.9088134765625	-952.3460693359375	1527.282104492188	-137.7826385498047	-982.34521484375	1234.538452148438	-106.1436462402344	-985.9264526367188	1230.354248046875	-202.8506469726562	-854.6589965820312	983.3154907226562	-103.7999572753906	-930.9866333007812	972.425537109375	-74.60172271728516	-964.6673583984375	1160.908325195312	-86.84521484375	-845.1531372070312	785.8087768554688	-111.6748580932617	-833.0606079101562	873.1752319335938	-92.41646575927734	-901.5159301757812	871.2659912109375	-63.84429931640625	-931.1875610351562	1781.846313476562	-315.4601135253906	-772.6644287109375	1834.960327148438	-458.5630493164062	-768.4849243164062	1850.382446289062	-329.5149841308594	-943.249755859375	1769.877197265625	-449.9946899414062	-926.6634521484375	1045.957153320312	-532.3244018554688	-890.6011962890625	1023.017028808594	-171.3490753173828	-812.1207275390625	1100.396728515625	-226.091064453125	-816.5626831054688	1102.206787109375	-489.1251220703125	-861.5352783203125	544.5155029296875	-496.2891845703125	-898.4797973632812	686.5932006835938	-525.917724609375	-926.873779296875	28.28490257263184	-458.8952331542969	-939.5361938476562	288.2279052734375	-506.4117126464844	-705.4985961914062	66.16649627685547	-398.1212768554688	-784.721435546875	65.29385375976562	-364.7974548339844	-799.3810424804688	32.59844589233398	-475.0346984863281	-1000.609558105469	35.80575942993164	-399.3722839355469	-798.76513671875	535.820068359375	-203.6144714355469	-836.4459838867188	815.6373291015625	-182.4131469726562	-1129.832763671875	121.9018859863281	-165.2519073486328	-877.525146484375	420.0482482910156	-179.4014129638672	-909.941162109375	47.63963317871094	-204.1207580566406	-968.2227783203125	55.29451751708984	-250.7648620605469	-1007.101379394531	71.79945373535156	-139.7181701660156	-1179.866943359375	147.4251556396484	-217.8617858886719	
353	3.52	-1026.507080078125	1122.7255859375	-285.7469482421875	-1023.894409179688	1132.485229492188	-421.19384765625	-1030.815795898438	1167.92041015625	-356.5205688476562	-791.9302368164062	1355.131103515625	-359.2507934570312	-1048.709716796875	1324.494750976562	-360.98583984375	-984.5194702148438	1612.636840820312	-387.9045104980469	-814.4100952148438	1492.957275390625	-368.1683044433594	-1055.326293945312	1436.521484375	-293.1493225097656	-989.7161254882812	1589.400634765625	-489.1660766601562	-902.532470703125	1564.914794921875	-552.4624633789062	-924.8587036132812	1434.230834960938	-621.5379028320312	-920.3273315429688	1215.586547851562	-645.607666015625	-992.5701904296875	1207.218872070312	-597.468994140625	-842.90966796875	951.9771728515625	-592.1556396484375	-920.3400268554688	931.4330444335938	-630.6235961914062	-909.878662109375	1098.587646484375	-649.1357421875	-845.8822021484375	758.3696899414062	-570.5692138671875	-895.9061279296875	854.7864990234375	-628.3753051757812	-831.1608276367188	861.8943481445312	-602.0581665039062	-935.5737915039062	1596.856689453125	-203.2662048339844	-958.5185546875	1527.46728515625	-137.0284118652344	-987.9993286132812	1234.63037109375	-105.3852081298828	-991.8280639648438	1230.48291015625	-202.0242767333984	-859.5938110351562	983.7767333984375	-103.4078979492188	-935.8646240234375	972.6312255859375	-74.08760070800781	-970.07861328125	1161.017700195312	-86.14153289794922	-849.46142578125	786.2987670898438	-111.4470901489258	-837.5932006835938	873.7003173828125	-92.14625549316406	-906.0223388671875	871.543701171875	-63.4434928894043	-938.5267944335938	1782.068603515625	-315.2696838378906	-780.1121215820312	1835.046875	-458.5837097167969	-775.845703125	1850.626831054688	-329.5570373535156	-950.6455688476562	1769.91357421875	-449.758056640625	-932.72216796875	1046.419921875	-532.020751953125	-896.9076538085938	1022.560668945312	-170.9685668945312	-818.5557861328125	1099.993286132812	-225.5381317138672	-822.70751953125	1102.534545898438	-488.5598754882812	-865.3783569335938	545.0213012695312	-496.8265686035156	-903.1275634765625	686.9727172851562	-526.1795654296875	-927.0866088867188	27.93412399291992	-459.1998901367188	-942.01513671875	288.3983154296875	-506.8782043457031	-706.0828857421875	68.04841613769531	-398.9976196289062	-785.28369140625	67.03188323974609	-365.5160217285156	-799.636962890625	32.70614242553711	-475.1307983398438	-1000.832946777344	35.59629058837891	-399.6459350585938	-813.0742797851562	533.734130859375	-204.1261749267578	-845.4362182617188	814.308349609375	-183.0614624023438	-1151.757446289062	125.6781692504883	-166.2900085449219	-894.0345458984375	419.4230041503906	-179.9974365234375	-933.4512939453125	47.10198974609375	-205.7189025878906	-991.5753173828125	56.0503044128418	-252.2064666748047	-1030.208374023438	72.69901275634766	-141.1324310302734	-1201.197875976562	152.5099487304688	-218.7610473632812	
354	3.53	-1032.655029296875	1122.729736328125	-285.3370666503906	-1030.09765625	1132.60888671875	-420.7699890136719	-1036.709716796875	1167.931640625	-355.8816833496094	-798.3214111328125	1355.248046875	-358.786865234375	-1054.967163085938	1324.28369140625	-360.0155029296875	-991.4111328125	1612.4892578125	-386.8781433105469	-821.09423828125	1492.979248046875	-367.8497619628906	-1061.746948242188	1436.373168945312	-291.9268798828125	-997.1077270507812	1589.236450195312	-488.2126159667969	-910.1162109375	1564.823120117188	-551.80908203125	-932.8970336914062	1434.231079101562	-620.9043579101562	-929.4965209960938	1215.71337890625	-645.154052734375	-1001.567199707031	1207.732055664062	-596.552001953125	-855.0130615234375	950.8753051757812	-593.4851684570312	-932.9835815429688	931.5618286132812	-631.6068115234375	-920.4176635742188	1098.665405273438	-649.2765502929688	-860.7263793945312	757.18115234375	-572.9248657226562	-909.4462280273438	854.4964599609375	-629.9150390625	-844.663330078125	860.6241455078125	-603.9759521484375	-941.91162109375	1596.980224609375	-202.5579528808594	-964.570556640625	1527.619750976562	-136.2043762207031	-993.6011352539062	1234.6982421875	-104.4994659423828	-997.77880859375	1230.593627929688	-201.0574493408203	-864.40869140625	984.2518310546875	-103.0576705932617	-940.5642700195312	972.807373046875	-73.51228332519531	-975.4195556640625	1161.098022460938	-85.33577728271484	-853.5547485351562	786.811279296875	-111.3368453979492	-841.92529296875	874.2532348632812	-91.97882080078125	-910.2953491210938	871.7994384765625	-63.05412292480469	-945.822021484375	1782.20947265625	-315.0170288085938	-787.5709838867188	1835.114135742188	-458.567626953125	-783.2029418945312	1850.867919921875	-329.5693054199219	-958.02783203125	1769.844604492188	-449.4561462402344	-938.7607421875	1046.833129882812	-531.6849365234375	-903.349853515625	1022.074584960938	-170.5180206298828	-825.1764526367188	1099.5283203125	-224.913818359375	-828.8745727539062	1102.834716796875	-487.9519958496094	-869.0928344726562	545.5015258789062	-497.258544921875	-907.6356811523438	687.3123168945312	-526.3515014648438	-927.2748413085938	27.62082862854004	-459.4721984863281	-944.3900146484375	288.5525817871094	-507.2802734375	-706.6657104492188	69.82894134521484	-399.8130187988281	-785.8501586914062	68.67138671875	-366.1903686523438	-799.8577270507812	32.85394287109375	-475.218505859375	-1001.007019042969	35.37035369873047	-399.8512573242188	-827.445068359375	531.7882080078125	-204.5442352294922	-854.4624633789062	813.0458374023438	-183.6416320800781	-1173.290283203125	129.4004974365234	-167.3162994384766	-910.4910888671875	418.9070129394531	-180.5086364746094	-956.5966186523438	46.73932266235352	-207.1104583740234	-1014.507080078125	56.88123321533203	-253.5270233154297	-1052.970947265625	73.67476654052734	-142.4369964599609	-1222.115356445312	157.492431640625	-219.6707305908203	
